<svg width="126" height="107" viewBox="0 0 126 107" fill="none" xmlns="http://www.w3.org/2000/svg">
<g filter="url(#filter0_d_8_24)">
<rect x="4" width="118" height="99" rx="20" fill="#001F21"/>
<path d="M36.2758 93H32.0518V92.219L33.0858 91.317V85.575L31.8318 85.245L32.2718 84.365H36.4958V85.146L35.4508 86.059V91.79L36.7158 92.12L36.2758 93ZM44.7939 92.989H42.0439V89.59C42.0439 89.2747 41.9963 89.051 41.9009 88.919C41.8129 88.787 41.6553 88.721 41.4279 88.721C41.1126 88.721 40.8046 88.798 40.5039 88.952V91.812L41.4939 92.12L41.0539 93H37.3249V92.219L38.3039 91.361V89.216L37.3249 88.578V87.797L39.8659 86.818L40.3279 88.006L41.5709 87.005C41.7689 86.9463 42.0073 86.917 42.2859 86.917C42.8873 86.917 43.3639 87.071 43.7159 87.379C44.0679 87.6797 44.2439 88.0903 44.2439 88.611V91.812L45.2339 92.109L44.7939 92.989ZM53.1406 92.989H50.3906V89.59C50.3906 89.2747 50.343 89.051 50.2476 88.919C50.1596 88.787 50.002 88.721 49.7746 88.721C49.4593 88.721 49.1513 88.798 48.8506 88.952V91.812L49.8406 92.12L49.4006 93H45.6716V92.219L46.6506 91.361V89.216L45.6716 88.578V87.797L48.2126 86.818L48.6746 88.006L49.9176 87.005C50.1156 86.9463 50.354 86.917 50.6326 86.917C51.234 86.917 51.7106 87.071 52.0626 87.379C52.4146 87.6797 52.5906 88.0903 52.5906 88.611V91.812L53.5806 92.109L53.1406 92.989ZM57.8269 86.917C58.3989 86.917 58.9085 87.0453 59.3559 87.302C59.8105 87.5513 60.1625 87.8997 60.4119 88.347C60.6685 88.787 60.7969 89.2783 60.7969 89.821C60.7969 90.4077 60.6025 90.954 60.2139 91.46C59.8252 91.966 59.3375 92.3693 58.7509 92.67C58.1642 92.9633 57.5959 93.11 57.0459 93.11C56.4739 93.11 55.9605 92.9853 55.5059 92.736C55.0585 92.4793 54.7065 92.131 54.4499 91.691C54.2005 91.2437 54.0759 90.7487 54.0759 90.206C54.0759 89.6193 54.2702 89.073 54.6589 88.567C55.0475 88.061 55.5352 87.6613 56.1219 87.368C56.7085 87.0673 57.2769 86.917 57.8269 86.917ZM57.1889 88.391C56.9542 88.391 56.7709 88.501 56.6389 88.721C56.5142 88.9337 56.4519 89.2527 56.4519 89.678C56.4519 90.25 56.5582 90.7193 56.7709 91.086C56.9909 91.4527 57.2952 91.636 57.6839 91.636C57.9185 91.636 58.0982 91.526 58.2229 91.306C58.3549 91.086 58.4209 90.7633 58.4209 90.338C58.4209 89.766 58.3109 89.3003 58.0909 88.941C57.8782 88.5743 57.5775 88.391 57.1889 88.391ZM73.4605 87.346L72.6905 87.676L71.0955 85.399H70.2705V91.823L71.5355 92.12L71.0955 93H66.8715V92.219L67.9055 91.405V85.399H67.1135L65.5185 87.676L64.7485 87.346V84.156L65.6615 84.354H72.5475L73.4605 84.156V87.346ZM76.9799 86.917C77.7939 86.917 78.4246 87.2213 78.8719 87.83C79.3193 88.4387 79.5319 89.304 79.5099 90.426H75.6269C75.7149 90.7633 75.8616 91.031 76.0669 91.229C76.2723 91.4197 76.5326 91.515 76.8479 91.515C77.3686 91.515 78.1459 91.3243 79.1799 90.943L79.5099 91.691L78.0029 92.901C77.5043 93.0403 76.9066 93.11 76.2099 93.11C75.6379 93.11 75.1246 92.9853 74.6699 92.736C74.2226 92.4793 73.8706 92.131 73.6139 91.691C73.3646 91.2437 73.2399 90.7487 73.2399 90.206C73.2399 89.6193 73.4343 89.073 73.8229 88.567C74.2116 88.061 74.6993 87.6613 75.2859 87.368C75.8726 87.0673 76.4409 86.917 76.9909 86.917H76.9799ZM76.3969 88.391C76.1256 88.391 75.9203 88.4863 75.7809 88.677C75.6416 88.8603 75.5646 89.1463 75.5499 89.535H77.3649C77.3283 89.1463 77.2329 88.8603 77.0789 88.677C76.9249 88.4863 76.6939 88.391 76.3859 88.391H76.3969ZM84.1508 86.917C84.5175 86.917 84.9465 86.961 85.4378 87.049C85.9292 87.1297 86.2848 87.2213 86.5048 87.324V89.568H85.6468C85.3755 89.194 85.0675 88.9043 84.7228 88.699C84.3855 88.4937 84.0298 88.391 83.6558 88.391C83.4358 88.391 83.2598 88.5047 83.1278 88.732C82.9958 88.952 82.9298 89.2673 82.9298 89.678C82.9298 90.206 83.0398 90.646 83.2598 90.998C83.4872 91.3427 83.8098 91.515 84.2278 91.515C84.7265 91.515 85.4672 91.3243 86.4498 90.943L86.7798 91.691L85.2728 92.901C84.8035 93.0403 84.2425 93.11 83.5898 93.11C83.0178 93.11 82.5045 92.9853 82.0498 92.736C81.6025 92.4793 81.2505 92.131 80.9938 91.691C80.7445 91.2437 80.6198 90.7487 80.6198 90.206C80.6198 89.6193 80.8032 89.073 81.1698 88.567C81.5365 88.061 81.9948 87.6613 82.5448 87.368C83.1022 87.0673 83.6375 86.917 84.1508 86.917ZM94.8903 92.989H92.1403V89.59C92.1403 89.2747 92.0927 89.051 91.9973 88.919C91.9093 88.787 91.7517 88.721 91.5243 88.721C91.209 88.721 90.901 88.798 90.6003 88.952V91.812L91.5903 92.12L91.1503 93H87.4213V92.219L88.4003 91.361V85.795L87.4213 85.157V84.376L89.7423 83.397H90.6003V87.863L91.6673 87.005C91.8653 86.9463 92.1037 86.917 92.3823 86.917C92.9837 86.917 93.4603 87.071 93.8123 87.379C94.1643 87.6797 94.3403 88.0903 94.3403 88.611V91.812L95.3303 92.109L94.8903 92.989Z" fill="#ECC039"/>
<path d="M109.5 43.5C109.5 64.3895 88.3421 81.5 62 81.5C35.6579 81.5 14.5 64.3895 14.5 43.5C14.5 22.6105 35.6579 5.5 62 5.5C88.3421 5.5 109.5 22.6105 109.5 43.5Z" fill="#029B99" stroke="black"/>
<line x1="41" y1="74" x2="41" y2="47" stroke="#EBE7B7" stroke-width="2"/>
<line x1="41.6838" y1="46.0513" x2="62.6838" y2="39.0513" stroke="#EBE7B7" stroke-width="2"/>
<line x1="63.8" y1="38.4" x2="75.8" y2="54.4" stroke="#EBE7B7" stroke-width="2"/>
<line x1="51" y1="78" x2="51" y2="60" stroke="#EBE7B7" stroke-width="2"/>
<line x1="50.4188" y1="60.1863" x2="57.4188" y2="55.1863" stroke="#EBE7B7" stroke-width="2"/>
<line x1="75.0001" y1="78.0159" x2="74.0001" y2="15.0159" stroke="#EBE7B7" stroke-width="2"/>
<line x1="75.3807" y1="15.9247" x2="58.3807" y2="22.9247" stroke="#EBE7B7" stroke-width="2"/>
<line x1="57.9998" y1="21.9821" x2="58.9998" y2="77.9821" stroke="#EBE7B7" stroke-width="2"/>
<line x1="82.5" y1="52" x2="82.5" y2="74" stroke="#EBE7B7" stroke-width="3"/>
<rect x="55" y="54" width="16" height="24" rx="2" fill="#EBE7B7"/>
<path d="M44 46.292C44 47.6727 42.8807 48.792 41.5 48.792C40.1193 48.792 39 47.6727 39 46.292C39 44.9113 40.1193 43.792 41.5 43.792C42.8807 43.792 44 44.9113 44 46.292Z" fill="#DE4F15"/>
<path d="M60 23.5C60 24.8807 58.8807 26 57.5 26C56.1193 26 55 24.8807 55 23.5C55 22.1193 56.1193 21 57.5 21C58.8807 21 60 22.1193 60 23.5Z" fill="#DE4F15"/>
<path d="M66 38.5C66 39.8807 64.8807 41 63.5 41C62.1193 41 61 39.8807 61 38.5C61 37.1193 62.1193 36 63.5 36C64.8807 36 66 37.1193 66 38.5Z" fill="#DE4F15"/>
<path d="M76 17C76 18.3807 74.8807 19.5 73.5 19.5C72.1193 19.5 71 18.3807 71 17C71 15.6193 72.1193 14.5 73.5 14.5C74.8807 14.5 76 15.6193 76 17Z" fill="#DE4F15"/>
<path d="M77 52.5C77 53.8807 75.8807 55 74.5 55C73.1193 55 72 53.8807 72 52.5C72 51.1193 73.1193 50 74.5 50C75.8807 50 77 51.1193 77 52.5Z" fill="#DE4F15"/>
<path d="M53.5 59.5C53.5 60.8807 52.3807 62 51 62C49.6193 62 48.5 60.8807 48.5 59.5C48.5 58.1193 49.6193 57 51 57C52.3807 57 53.5 58.1193 53.5 59.5Z" fill="#DE4F15"/>
<path d="M84.5 51.292C84.5 52.6727 83.3807 53.792 82 53.792C80.6193 53.792 79.5 52.6727 79.5 51.292C79.5 49.9113 80.6193 48.792 82 48.792C83.3807 48.792 84.5 49.9113 84.5 51.292Z" fill="#DE4F15"/>
</g>
<defs>
<filter id="filter0_d_8_24" x="0" y="0" width="126" height="107" filterUnits="userSpaceOnUse" color-interpolation-filters="sRGB">
<feFlood flood-opacity="0" result="BackgroundImageFix"/>
<feColorMatrix in="SourceAlpha" type="matrix" values="0 0 0 0 0 0 0 0 0 0 0 0 0 0 0 0 0 0 127 0" result="hardAlpha"/>
<feOffset dy="4"/>
<feGaussianBlur stdDeviation="2"/>
<feComposite in2="hardAlpha" operator="out"/>
<feColorMatrix type="matrix" values="0 0 0 0 0 0 0 0 0 0 0 0 0 0 0 0 0 0 0.25 0"/>
<feBlend mode="normal" in2="BackgroundImageFix" result="effect1_dropShadow_8_24"/>
<feBlend mode="normal" in="SourceGraphic" in2="effect1_dropShadow_8_24" result="shape"/>
</filter>
</defs>
</svg>
