<?xml version="1.0" standalone="no"?>
<!DOCTYPE svg PUBLIC "-//W3C//DTD SVG 20010904//EN"
 "http://www.w3.org/TR/2001/REC-SVG-20010904/DTD/svg10.dtd">
<svg version="1.0" xmlns="http://www.w3.org/2000/svg"
 width="1280.000000pt" height="1280.000000pt" viewBox="0 0 1280.000000 1280.000000"
 preserveAspectRatio="xMidYMid meet">
<g transform="translate(0.000000,1280.000000) scale(0.100000,-0.100000)"
fill="#000000" stroke="none">
<path d="M7976 10749 c-213 -28 -480 -139 -729 -306 -441 -294 -694 -631 -842
-1119 -63 -208 -75 -291 -68 -458 5 -113 10 -152 22 -167 14 -17 35 -20 161
-25 140 -6 149 -5 262 25 328 87 543 201 723 386 278 284 366 401 469 617 133
277 196 568 196 906 0 159 -7 165 -194 141z"/>
<path d="M7880 8683 c-182 -14 -701 -154 -990 -265 -371 -144 -361 -140 -435
-140 -85 0 -251 51 -570 177 -115 45 -252 92 -303 104 -51 12 -150 38 -220 57
-80 22 -171 39 -248 46 -111 10 -129 9 -225 -11 -57 -12 -178 -36 -269 -52
-194 -35 -302 -70 -455 -144 -489 -239 -830 -614 -1080 -1190 -61 -139 -150
-397 -185 -533 -86 -340 -86 -991 0 -1387 11 -49 20 -110 20 -135 0 -26 9 -82
21 -126 11 -43 49 -192 83 -329 58 -227 76 -281 195 -580 164 -410 242 -568
390 -793 137 -207 401 -576 509 -712 106 -133 302 -332 397 -402 108 -81 295
-172 419 -203 151 -38 283 -33 498 21 123 31 202 59 408 146 120 51 196 77
280 94 63 13 169 35 235 49 138 28 220 31 321 10 39 -8 115 -19 170 -25 125
-13 193 -34 424 -125 344 -137 516 -179 735 -179 193 -1 305 31 493 141 233
137 499 404 750 756 284 399 579 960 657 1251 13 48 31 99 40 112 40 61 -1
105 -184 198 -313 159 -595 451 -764 791 -109 219 -133 301 -176 605 -42 294
-18 515 95 858 79 241 155 380 288 526 176 194 302 308 416 375 102 61 125 94
99 144 -21 40 -187 233 -251 293 -336 310 -746 506 -1168 557 -132 16 -344 27
-420 20z"/>
</g>
</svg>
